<svg id="Layer_1" data-name="Layer 1" xmlns="http://www.w3.org/2000/svg" viewBox="0 0 40 40"><title>Artboard 1</title><polygon points="5.05 0 0 5.05 0 1 1 0 5.05 0"/><polygon points="13.15 0 0 13.15 0 9.11 9.11 0 13.15 0"/><polygon points="21.27 0 0 21.27 0 17.21 17.21 0 21.27 0"/><polygon points="29.37 0 0 29.37 0 25.31 25.31 0 29.37 0"/><polygon points="37.47 0 0 37.47 0 33.42 33.42 0 37.47 0"/><polygon points="40 1.53 40 5.58 5.58 40 1.53 40 40 1.53"/><polygon points="40 9.63 40 13.69 13.69 40 9.63 40 40 9.63"/><polygon points="40 17.73 40 21.79 21.79 40 17.73 40 40 17.73"/><polygon points="40 25.85 40 29.89 29.89 40 25.85 40 40 25.85"/><polygon points="40 33.95 40 38 38 40 33.95 40 40 33.95"/></svg>